<svg xmlns="http://www.w3.org/2000/svg" width="800" height="480" viewBox="0 0 800 480">
  <defs>
    <linearGradient id="bg2" x1="100%" y1="0%" x2="0%" y2="100%">
      <stop offset="0%" stop-color="#112240"/>
      <stop offset="100%" stop-color="#0d1b34"/>
    </linearGradient>
  </defs>
  <rect width="800" height="480" fill="url(#bg2)"/>
  <pattern id="dots2" width="24" height="24" patternUnits="userSpaceOnUse">
    <circle cx="12" cy="12" r="1.2" fill="rgba(100,255,218,0.06)"/>
  </pattern>
  <rect width="800" height="480" fill="url(#dots2)"/>
  <!-- Kanban board columns -->
  <!-- Column 1: To Do -->
  <rect x="80" y="80" width="180" height="300" rx="4" fill="rgba(17,34,64,0.95)" stroke="rgba(100,255,218,0.15)" stroke-width="1"/>
  <rect x="80" y="80" width="180" height="32" rx="4" fill="#233554"/>
  <text x="170" y="100" text-anchor="middle" fill="#ccd6f6" font-family="Inter, sans-serif" font-size="11" font-weight="600">TO DO</text>
  <rect x="92" y="126" width="156" height="52" rx="3" fill="rgba(35,53,84,0.8)" stroke="rgba(100,255,218,0.1)" stroke-width="1"/>
  <rect x="100" y="136" width="80" height="7" rx="2" fill="rgba(100,255,218,0.2)"/>
  <rect x="100" y="150" width="120" height="6" rx="2" fill="rgba(100,255,218,0.08)"/>
  <rect x="92" y="188" width="156" height="52" rx="3" fill="rgba(35,53,84,0.8)" stroke="rgba(100,255,218,0.1)" stroke-width="1"/>
  <rect x="100" y="198" width="60" height="7" rx="2" fill="rgba(100,255,218,0.2)"/>
  <rect x="100" y="212" width="110" height="6" rx="2" fill="rgba(100,255,218,0.08)"/>
  <!-- Column 2: In Progress -->
  <rect x="310" y="80" width="180" height="300" rx="4" fill="rgba(17,34,64,0.95)" stroke="rgba(100,255,218,0.3)" stroke-width="1.5"/>
  <rect x="310" y="80" width="180" height="32" rx="4" fill="rgba(100,255,218,0.15)"/>
  <text x="400" y="100" text-anchor="middle" fill="#64ffda" font-family="Inter, sans-serif" font-size="11" font-weight="600">IN PROGRESS</text>
  <rect x="322" y="126" width="156" height="65" rx="3" fill="rgba(35,53,84,0.9)" stroke="rgba(100,255,218,0.25)" stroke-width="1"/>
  <rect x="330" y="136" width="90" height="7" rx="2" fill="rgba(100,255,218,0.3)"/>
  <rect x="330" y="150" width="130" height="6" rx="2" fill="rgba(100,255,218,0.1)"/>
  <rect x="330" y="162" width="100" height="6" rx="2" fill="rgba(100,255,218,0.1)"/>
  <!-- Column 3: Done -->
  <rect x="540" y="80" width="180" height="300" rx="4" fill="rgba(17,34,64,0.95)" stroke="rgba(100,255,218,0.15)" stroke-width="1"/>
  <rect x="540" y="80" width="180" height="32" rx="4" fill="#233554"/>
  <text x="630" y="100" text-anchor="middle" fill="#ccd6f6" font-family="Inter, sans-serif" font-size="11" font-weight="600">DONE</text>
  <rect x="552" y="126" width="156" height="52" rx="3" fill="rgba(35,53,84,0.8)" stroke="rgba(100,255,218,0.1)" stroke-width="1"/>
  <rect x="560" y="136" width="100" height="7" rx="2" fill="rgba(100,255,218,0.15)"/>
  <rect x="560" y="150" width="80" height="6" rx="2" fill="rgba(100,255,218,0.07)"/>
  <rect x="552" y="188" width="156" height="52" rx="3" fill="rgba(35,53,84,0.8)" stroke="rgba(100,255,218,0.1)" stroke-width="1"/>
  <rect x="560" y="198" width="70" height="7" rx="2" fill="rgba(100,255,218,0.15)"/>
  <rect x="560" y="212" width="120" height="6" rx="2" fill="rgba(100,255,218,0.07)"/>
  <text x="400" y="456" text-anchor="middle" fill="rgba(100,255,218,0.35)" font-family="Courier New, monospace" font-size="12" letter-spacing="2">[ TASK MANAGEMENT APP — PROJECT SCREENSHOT ]</text>
</svg>
